<mxfile host="app.diagrams.net" modified="2022-11-10T03:51:24.876Z" agent="5.0 (Macintosh; Intel Mac OS X 10_15_7) AppleWebKit/537.36 (KHTML, like Gecko) Chrome/107.0.0.0 Safari/537.36" etag="CJGKHT34fCQxbVlk9kp9" version="20.3.6" type="github">
  <diagram id="D5zLPbxt9vXErzszsiMT" name="第 1 页">
    <mxGraphModel dx="1181" dy="717" grid="1" gridSize="10" guides="1" tooltips="1" connect="1" arrows="1" fold="1" page="1" pageScale="1" pageWidth="827" pageHeight="1169" math="0" shadow="0">
      <root>
        <mxCell id="0" />
        <mxCell id="1" parent="0" />
        <mxCell id="ZznkZ2ql_JOqOF5J9WQn-2" value="nvme.0" style="rounded=0;whiteSpace=wrap;html=1;strokeWidth=1;dashed=1;" vertex="1" parent="1">
          <mxGeometry x="460" y="435" width="70" height="30" as="geometry" />
        </mxCell>
        <mxCell id="ZznkZ2ql_JOqOF5J9WQn-8" value="nvme.1" style="rounded=0;whiteSpace=wrap;html=1;strokeWidth=1;dashed=1;" vertex="1" parent="1">
          <mxGeometry x="460" y="480" width="70" height="30" as="geometry" />
        </mxCell>
        <mxCell id="ZznkZ2ql_JOqOF5J9WQn-15" value="/dev/sda" style="text;html=1;align=center;verticalAlign=middle;resizable=0;points=[];autosize=1;strokeColor=none;fillColor=none;" vertex="1" parent="1">
          <mxGeometry x="340" y="435" width="70" height="30" as="geometry" />
        </mxCell>
        <mxCell id="ZznkZ2ql_JOqOF5J9WQn-16" value="/dev/sdb" style="text;html=1;align=center;verticalAlign=middle;resizable=0;points=[];autosize=1;strokeColor=none;fillColor=none;" vertex="1" parent="1">
          <mxGeometry x="340" y="480" width="70" height="30" as="geometry" />
        </mxCell>
        <mxCell id="ZznkZ2ql_JOqOF5J9WQn-17" value="" style="endArrow=classic;html=1;rounded=0;entryX=0;entryY=0.5;entryDx=0;entryDy=0;" edge="1" parent="1" source="ZznkZ2ql_JOqOF5J9WQn-15" target="ZznkZ2ql_JOqOF5J9WQn-2">
          <mxGeometry width="50" height="50" relative="1" as="geometry">
            <mxPoint x="390" y="480" as="sourcePoint" />
            <mxPoint x="440" y="430" as="targetPoint" />
          </mxGeometry>
        </mxCell>
        <mxCell id="ZznkZ2ql_JOqOF5J9WQn-19" value="" style="endArrow=classic;html=1;rounded=0;entryX=0;entryY=0.5;entryDx=0;entryDy=0;" edge="1" parent="1" source="ZznkZ2ql_JOqOF5J9WQn-16" target="ZznkZ2ql_JOqOF5J9WQn-8">
          <mxGeometry width="50" height="50" relative="1" as="geometry">
            <mxPoint x="390" y="480" as="sourcePoint" />
            <mxPoint x="440" y="430" as="targetPoint" />
          </mxGeometry>
        </mxCell>
      </root>
    </mxGraphModel>
  </diagram>
</mxfile>
